<mxfile host="app.diagrams.net" agent="Mozilla/5.0 (Windows NT 10.0; Win64; x64) AppleWebKit/537.36 (KHTML, like Gecko) Chrome/128.0.0.0 Safari/537.36 OPR/114.0.0.0" version="24.8.6">
  <diagram name="Trang-1" id="xhs-WXanrIiVJdg2il90">
    <mxGraphModel dx="1448" dy="815" grid="1" gridSize="10" guides="1" tooltips="1" connect="1" arrows="1" fold="1" page="1" pageScale="1" pageWidth="900" pageHeight="1600" math="0" shadow="0">
      <root>
        <mxCell id="0" />
        <mxCell id="1" parent="0" />
        <mxCell id="6X9cc2BMUp0UPXDACa7K-3" value="" style="edgeStyle=orthogonalEdgeStyle;rounded=0;orthogonalLoop=1;jettySize=auto;html=1;" edge="1" parent="1" source="6X9cc2BMUp0UPXDACa7K-1" target="6X9cc2BMUp0UPXDACa7K-2">
          <mxGeometry relative="1" as="geometry" />
        </mxCell>
        <mxCell id="6X9cc2BMUp0UPXDACa7K-1" value="START" style="ellipse;whiteSpace=wrap;html=1;" vertex="1" parent="1">
          <mxGeometry x="130" width="120" height="80" as="geometry" />
        </mxCell>
        <mxCell id="6X9cc2BMUp0UPXDACa7K-5" value="" style="edgeStyle=orthogonalEdgeStyle;rounded=0;orthogonalLoop=1;jettySize=auto;html=1;" edge="1" parent="1" source="6X9cc2BMUp0UPXDACa7K-2">
          <mxGeometry relative="1" as="geometry">
            <mxPoint x="190" y="210" as="targetPoint" />
          </mxGeometry>
        </mxCell>
        <mxCell id="6X9cc2BMUp0UPXDACa7K-2" value="nhập số nguyên dương n" style="shape=parallelogram;perimeter=parallelogramPerimeter;whiteSpace=wrap;html=1;fixedSize=1;" vertex="1" parent="1">
          <mxGeometry x="130" y="110" width="120" height="60" as="geometry" />
        </mxCell>
        <mxCell id="6X9cc2BMUp0UPXDACa7K-18" value="" style="edgeStyle=orthogonalEdgeStyle;rounded=0;orthogonalLoop=1;jettySize=auto;html=1;" edge="1" parent="1" source="6X9cc2BMUp0UPXDACa7K-14" target="6X9cc2BMUp0UPXDACa7K-17">
          <mxGeometry relative="1" as="geometry" />
        </mxCell>
        <mxCell id="6X9cc2BMUp0UPXDACa7K-20" value="False" style="edgeLabel;html=1;align=center;verticalAlign=middle;resizable=0;points=[];" vertex="1" connectable="0" parent="6X9cc2BMUp0UPXDACa7K-18">
          <mxGeometry x="-0.2905" y="-1" relative="1" as="geometry">
            <mxPoint as="offset" />
          </mxGeometry>
        </mxCell>
        <mxCell id="6X9cc2BMUp0UPXDACa7K-45" value="" style="edgeStyle=orthogonalEdgeStyle;rounded=0;orthogonalLoop=1;jettySize=auto;html=1;" edge="1" parent="1" source="6X9cc2BMUp0UPXDACa7K-14" target="6X9cc2BMUp0UPXDACa7K-44">
          <mxGeometry relative="1" as="geometry">
            <Array as="points">
              <mxPoint x="530" y="240" />
              <mxPoint x="530" y="690" />
            </Array>
          </mxGeometry>
        </mxCell>
        <mxCell id="6X9cc2BMUp0UPXDACa7K-46" value="True" style="edgeLabel;html=1;align=center;verticalAlign=middle;resizable=0;points=[];" vertex="1" connectable="0" parent="6X9cc2BMUp0UPXDACa7K-45">
          <mxGeometry x="-0.8082" relative="1" as="geometry">
            <mxPoint as="offset" />
          </mxGeometry>
        </mxCell>
        <mxCell id="6X9cc2BMUp0UPXDACa7K-14" value="n &amp;lt; 2" style="rhombus;whiteSpace=wrap;html=1;" vertex="1" parent="1">
          <mxGeometry x="707.5" y="200" width="150" height="80" as="geometry" />
        </mxCell>
        <mxCell id="6X9cc2BMUp0UPXDACa7K-22" value="" style="edgeStyle=orthogonalEdgeStyle;rounded=0;orthogonalLoop=1;jettySize=auto;html=1;" edge="1" parent="1" source="6X9cc2BMUp0UPXDACa7K-17" target="6X9cc2BMUp0UPXDACa7K-21">
          <mxGeometry relative="1" as="geometry" />
        </mxCell>
        <mxCell id="6X9cc2BMUp0UPXDACa7K-17" value="i = 2" style="whiteSpace=wrap;html=1;" vertex="1" parent="1">
          <mxGeometry x="722.5" y="320" width="120" height="60" as="geometry" />
        </mxCell>
        <mxCell id="6X9cc2BMUp0UPXDACa7K-24" value="" style="edgeStyle=orthogonalEdgeStyle;rounded=0;orthogonalLoop=1;jettySize=auto;html=1;" edge="1" parent="1" source="6X9cc2BMUp0UPXDACa7K-21" target="6X9cc2BMUp0UPXDACa7K-23">
          <mxGeometry relative="1" as="geometry" />
        </mxCell>
        <mxCell id="6X9cc2BMUp0UPXDACa7K-25" value="True" style="edgeLabel;html=1;align=center;verticalAlign=middle;resizable=0;points=[];" vertex="1" connectable="0" parent="6X9cc2BMUp0UPXDACa7K-24">
          <mxGeometry x="-0.2235" relative="1" as="geometry">
            <mxPoint as="offset" />
          </mxGeometry>
        </mxCell>
        <mxCell id="6X9cc2BMUp0UPXDACa7K-42" value="" style="edgeStyle=orthogonalEdgeStyle;rounded=0;orthogonalLoop=1;jettySize=auto;html=1;" edge="1" parent="1" source="6X9cc2BMUp0UPXDACa7K-21" target="6X9cc2BMUp0UPXDACa7K-41">
          <mxGeometry relative="1" as="geometry" />
        </mxCell>
        <mxCell id="6X9cc2BMUp0UPXDACa7K-43" value="false" style="edgeLabel;html=1;align=center;verticalAlign=middle;resizable=0;points=[];" vertex="1" connectable="0" parent="6X9cc2BMUp0UPXDACa7K-42">
          <mxGeometry x="-0.1097" relative="1" as="geometry">
            <mxPoint as="offset" />
          </mxGeometry>
        </mxCell>
        <mxCell id="6X9cc2BMUp0UPXDACa7K-21" value="i &amp;lt;= n/2" style="rhombus;whiteSpace=wrap;html=1;" vertex="1" parent="1">
          <mxGeometry x="700" y="410" width="165" height="80" as="geometry" />
        </mxCell>
        <mxCell id="6X9cc2BMUp0UPXDACa7K-27" value="" style="edgeStyle=orthogonalEdgeStyle;rounded=0;orthogonalLoop=1;jettySize=auto;html=1;" edge="1" parent="1" source="6X9cc2BMUp0UPXDACa7K-23">
          <mxGeometry relative="1" as="geometry">
            <mxPoint x="782.5" y="660" as="targetPoint" />
          </mxGeometry>
        </mxCell>
        <mxCell id="6X9cc2BMUp0UPXDACa7K-28" value="True" style="edgeLabel;html=1;align=center;verticalAlign=middle;resizable=0;points=[];" vertex="1" connectable="0" parent="6X9cc2BMUp0UPXDACa7K-27">
          <mxGeometry x="-0.1581" relative="1" as="geometry">
            <mxPoint as="offset" />
          </mxGeometry>
        </mxCell>
        <mxCell id="6X9cc2BMUp0UPXDACa7K-38" value="" style="edgeStyle=orthogonalEdgeStyle;rounded=0;orthogonalLoop=1;jettySize=auto;html=1;" edge="1" parent="1" source="6X9cc2BMUp0UPXDACa7K-23" target="6X9cc2BMUp0UPXDACa7K-37">
          <mxGeometry relative="1" as="geometry" />
        </mxCell>
        <mxCell id="6X9cc2BMUp0UPXDACa7K-39" value="false" style="edgeLabel;html=1;align=center;verticalAlign=middle;resizable=0;points=[];" vertex="1" connectable="0" parent="6X9cc2BMUp0UPXDACa7K-38">
          <mxGeometry x="-0.1468" y="1" relative="1" as="geometry">
            <mxPoint as="offset" />
          </mxGeometry>
        </mxCell>
        <mxCell id="6X9cc2BMUp0UPXDACa7K-23" value="n % i == 0" style="rhombus;whiteSpace=wrap;html=1;" vertex="1" parent="1">
          <mxGeometry x="720" y="530" width="125" height="80" as="geometry" />
        </mxCell>
        <mxCell id="6X9cc2BMUp0UPXDACa7K-34" style="edgeStyle=orthogonalEdgeStyle;rounded=0;orthogonalLoop=1;jettySize=auto;html=1;entryX=0.5;entryY=0;entryDx=0;entryDy=0;" edge="1" parent="1" source="6X9cc2BMUp0UPXDACa7K-29" target="6X9cc2BMUp0UPXDACa7K-33">
          <mxGeometry relative="1" as="geometry" />
        </mxCell>
        <mxCell id="6X9cc2BMUp0UPXDACa7K-29" value="PrimeNumer(n)" style="ellipse;whiteSpace=wrap;html=1;" vertex="1" parent="1">
          <mxGeometry x="720" width="120" height="80" as="geometry" />
        </mxCell>
        <mxCell id="6X9cc2BMUp0UPXDACa7K-35" style="edgeStyle=orthogonalEdgeStyle;rounded=0;orthogonalLoop=1;jettySize=auto;html=1;entryX=0.5;entryY=0;entryDx=0;entryDy=0;" edge="1" parent="1" target="6X9cc2BMUp0UPXDACa7K-14">
          <mxGeometry relative="1" as="geometry">
            <mxPoint x="789.9655172413793" y="170" as="sourcePoint" />
          </mxGeometry>
        </mxCell>
        <mxCell id="6X9cc2BMUp0UPXDACa7K-33" value="nhận biến n" style="shape=parallelogram;perimeter=parallelogramPerimeter;whiteSpace=wrap;html=1;fixedSize=1;" vertex="1" parent="1">
          <mxGeometry x="720" y="110" width="120" height="60" as="geometry" />
        </mxCell>
        <mxCell id="6X9cc2BMUp0UPXDACa7K-50" style="edgeStyle=orthogonalEdgeStyle;rounded=0;orthogonalLoop=1;jettySize=auto;html=1;entryX=0.5;entryY=0;entryDx=0;entryDy=0;" edge="1" parent="1" source="6X9cc2BMUp0UPXDACa7K-36" target="6X9cc2BMUp0UPXDACa7K-47">
          <mxGeometry relative="1" as="geometry" />
        </mxCell>
        <mxCell id="6X9cc2BMUp0UPXDACa7K-36" value="false" style="shape=parallelogram;perimeter=parallelogramPerimeter;whiteSpace=wrap;html=1;fixedSize=1;" vertex="1" parent="1">
          <mxGeometry x="722.5" y="660" width="120" height="60" as="geometry" />
        </mxCell>
        <mxCell id="6X9cc2BMUp0UPXDACa7K-40" style="edgeStyle=orthogonalEdgeStyle;rounded=0;orthogonalLoop=1;jettySize=auto;html=1;entryX=0;entryY=0.5;entryDx=0;entryDy=0;" edge="1" parent="1" source="6X9cc2BMUp0UPXDACa7K-37" target="6X9cc2BMUp0UPXDACa7K-21">
          <mxGeometry relative="1" as="geometry">
            <Array as="points">
              <mxPoint x="610" y="450" />
            </Array>
          </mxGeometry>
        </mxCell>
        <mxCell id="6X9cc2BMUp0UPXDACa7K-37" value="i++" style="whiteSpace=wrap;html=1;" vertex="1" parent="1">
          <mxGeometry x="550" y="540" width="120" height="60" as="geometry" />
        </mxCell>
        <mxCell id="6X9cc2BMUp0UPXDACa7K-53" style="edgeStyle=orthogonalEdgeStyle;rounded=0;orthogonalLoop=1;jettySize=auto;html=1;entryX=0.5;entryY=0;entryDx=0;entryDy=0;" edge="1" parent="1" source="6X9cc2BMUp0UPXDACa7K-41" target="6X9cc2BMUp0UPXDACa7K-47">
          <mxGeometry relative="1" as="geometry">
            <Array as="points">
              <mxPoint x="930" y="760" />
              <mxPoint x="783" y="760" />
            </Array>
          </mxGeometry>
        </mxCell>
        <mxCell id="6X9cc2BMUp0UPXDACa7K-41" value="true" style="shape=parallelogram;perimeter=parallelogramPerimeter;whiteSpace=wrap;html=1;fixedSize=1;" vertex="1" parent="1">
          <mxGeometry x="880" y="660" width="120" height="60" as="geometry" />
        </mxCell>
        <mxCell id="6X9cc2BMUp0UPXDACa7K-48" style="edgeStyle=orthogonalEdgeStyle;rounded=0;orthogonalLoop=1;jettySize=auto;html=1;entryX=0.5;entryY=0;entryDx=0;entryDy=0;" edge="1" parent="1" source="6X9cc2BMUp0UPXDACa7K-44" target="6X9cc2BMUp0UPXDACa7K-47">
          <mxGeometry relative="1" as="geometry">
            <Array as="points">
              <mxPoint x="640" y="760" />
              <mxPoint x="783" y="760" />
            </Array>
          </mxGeometry>
        </mxCell>
        <mxCell id="6X9cc2BMUp0UPXDACa7K-44" value="flase" style="shape=parallelogram;perimeter=parallelogramPerimeter;whiteSpace=wrap;html=1;fixedSize=1;" vertex="1" parent="1">
          <mxGeometry x="580" y="660" width="120" height="60" as="geometry" />
        </mxCell>
        <mxCell id="6X9cc2BMUp0UPXDACa7K-47" value="END" style="ellipse;whiteSpace=wrap;html=1;" vertex="1" parent="1">
          <mxGeometry x="722.5" y="790" width="120" height="80" as="geometry" />
        </mxCell>
        <mxCell id="6X9cc2BMUp0UPXDACa7K-56" value="" style="edgeStyle=orthogonalEdgeStyle;rounded=0;orthogonalLoop=1;jettySize=auto;html=1;" edge="1" parent="1" source="6X9cc2BMUp0UPXDACa7K-54" target="6X9cc2BMUp0UPXDACa7K-55">
          <mxGeometry relative="1" as="geometry" />
        </mxCell>
        <mxCell id="6X9cc2BMUp0UPXDACa7K-54" value="count = 0&lt;br&gt;i = 2" style="rounded=0;whiteSpace=wrap;html=1;" vertex="1" parent="1">
          <mxGeometry x="130" y="210" width="120" height="60" as="geometry" />
        </mxCell>
        <mxCell id="6X9cc2BMUp0UPXDACa7K-58" value="" style="edgeStyle=orthogonalEdgeStyle;rounded=0;orthogonalLoop=1;jettySize=auto;html=1;" edge="1" parent="1" source="6X9cc2BMUp0UPXDACa7K-55">
          <mxGeometry relative="1" as="geometry">
            <mxPoint x="190" y="430" as="targetPoint" />
          </mxGeometry>
        </mxCell>
        <mxCell id="6X9cc2BMUp0UPXDACa7K-59" value="True" style="edgeLabel;html=1;align=center;verticalAlign=middle;resizable=0;points=[];" vertex="1" connectable="0" parent="6X9cc2BMUp0UPXDACa7K-58">
          <mxGeometry x="-0.2064" y="1" relative="1" as="geometry">
            <mxPoint as="offset" />
          </mxGeometry>
        </mxCell>
        <mxCell id="6X9cc2BMUp0UPXDACa7K-76" style="edgeStyle=orthogonalEdgeStyle;rounded=0;orthogonalLoop=1;jettySize=auto;html=1;entryX=1;entryY=0.5;entryDx=0;entryDy=0;" edge="1" parent="1" source="6X9cc2BMUp0UPXDACa7K-55" target="6X9cc2BMUp0UPXDACa7K-78">
          <mxGeometry relative="1" as="geometry">
            <mxPoint x="500" y="670" as="targetPoint" />
            <Array as="points">
              <mxPoint x="480" y="340" />
              <mxPoint x="480" y="780" />
            </Array>
          </mxGeometry>
        </mxCell>
        <mxCell id="6X9cc2BMUp0UPXDACa7K-77" value="False" style="edgeLabel;html=1;align=center;verticalAlign=middle;resizable=0;points=[];" vertex="1" connectable="0" parent="6X9cc2BMUp0UPXDACa7K-76">
          <mxGeometry x="-0.4338" relative="1" as="geometry">
            <mxPoint y="202" as="offset" />
          </mxGeometry>
        </mxCell>
        <mxCell id="6X9cc2BMUp0UPXDACa7K-55" value="count &amp;lt; n" style="rhombus;whiteSpace=wrap;html=1;rounded=0;" vertex="1" parent="1">
          <mxGeometry x="125" y="300" width="130" height="80" as="geometry" />
        </mxCell>
        <mxCell id="6X9cc2BMUp0UPXDACa7K-65" value="" style="edgeStyle=orthogonalEdgeStyle;rounded=0;orthogonalLoop=1;jettySize=auto;html=1;" edge="1" parent="1" source="6X9cc2BMUp0UPXDACa7K-61" target="6X9cc2BMUp0UPXDACa7K-64">
          <mxGeometry relative="1" as="geometry" />
        </mxCell>
        <mxCell id="6X9cc2BMUp0UPXDACa7K-68" value="True" style="edgeLabel;html=1;align=center;verticalAlign=middle;resizable=0;points=[];" vertex="1" connectable="0" parent="6X9cc2BMUp0UPXDACa7K-65">
          <mxGeometry x="-0.2678" y="-1" relative="1" as="geometry">
            <mxPoint as="offset" />
          </mxGeometry>
        </mxCell>
        <mxCell id="6X9cc2BMUp0UPXDACa7K-71" value="" style="edgeStyle=orthogonalEdgeStyle;rounded=0;orthogonalLoop=1;jettySize=auto;html=1;" edge="1" parent="1" source="6X9cc2BMUp0UPXDACa7K-61" target="6X9cc2BMUp0UPXDACa7K-70">
          <mxGeometry relative="1" as="geometry" />
        </mxCell>
        <mxCell id="6X9cc2BMUp0UPXDACa7K-72" value="False" style="edgeLabel;html=1;align=center;verticalAlign=middle;resizable=0;points=[];" vertex="1" connectable="0" parent="6X9cc2BMUp0UPXDACa7K-71">
          <mxGeometry x="-0.1351" y="3" relative="1" as="geometry">
            <mxPoint as="offset" />
          </mxGeometry>
        </mxCell>
        <mxCell id="6X9cc2BMUp0UPXDACa7K-61" value="PrimeNumber(i)" style="shape=process;whiteSpace=wrap;html=1;backgroundOutline=1;" vertex="1" parent="1">
          <mxGeometry x="130" y="430" width="120" height="60" as="geometry" />
        </mxCell>
        <mxCell id="6X9cc2BMUp0UPXDACa7K-67" value="" style="edgeStyle=orthogonalEdgeStyle;rounded=0;orthogonalLoop=1;jettySize=auto;html=1;" edge="1" parent="1" source="6X9cc2BMUp0UPXDACa7K-64" target="6X9cc2BMUp0UPXDACa7K-66">
          <mxGeometry relative="1" as="geometry" />
        </mxCell>
        <mxCell id="6X9cc2BMUp0UPXDACa7K-64" value="xuất i" style="shape=parallelogram;perimeter=parallelogramPerimeter;whiteSpace=wrap;html=1;fixedSize=1;" vertex="1" parent="1">
          <mxGeometry x="130" y="540" width="120" height="60" as="geometry" />
        </mxCell>
        <mxCell id="6X9cc2BMUp0UPXDACa7K-69" style="edgeStyle=orthogonalEdgeStyle;rounded=0;orthogonalLoop=1;jettySize=auto;html=1;entryX=0.5;entryY=0;entryDx=0;entryDy=0;" edge="1" parent="1" source="6X9cc2BMUp0UPXDACa7K-66" target="6X9cc2BMUp0UPXDACa7K-55">
          <mxGeometry relative="1" as="geometry">
            <Array as="points">
              <mxPoint x="50" y="670" />
              <mxPoint x="50" y="300" />
            </Array>
          </mxGeometry>
        </mxCell>
        <mxCell id="6X9cc2BMUp0UPXDACa7K-66" value="count++" style="whiteSpace=wrap;html=1;" vertex="1" parent="1">
          <mxGeometry x="130" y="640" width="120" height="60" as="geometry" />
        </mxCell>
        <mxCell id="6X9cc2BMUp0UPXDACa7K-73" style="edgeStyle=orthogonalEdgeStyle;rounded=0;orthogonalLoop=1;jettySize=auto;html=1;entryX=0.5;entryY=0;entryDx=0;entryDy=0;exitX=0.5;exitY=0;exitDx=0;exitDy=0;" edge="1" parent="1" source="6X9cc2BMUp0UPXDACa7K-70" target="6X9cc2BMUp0UPXDACa7K-55">
          <mxGeometry relative="1" as="geometry">
            <Array as="points">
              <mxPoint x="380" y="300" />
            </Array>
          </mxGeometry>
        </mxCell>
        <mxCell id="6X9cc2BMUp0UPXDACa7K-70" value="i++" style="whiteSpace=wrap;html=1;" vertex="1" parent="1">
          <mxGeometry x="320" y="430" width="120" height="60" as="geometry" />
        </mxCell>
        <mxCell id="6X9cc2BMUp0UPXDACa7K-78" value="END" style="ellipse;whiteSpace=wrap;html=1;" vertex="1" parent="1">
          <mxGeometry x="130" y="740" width="120" height="80" as="geometry" />
        </mxCell>
      </root>
    </mxGraphModel>
  </diagram>
</mxfile>
